<svg
  xmlns="http://www.w3.org/2000/svg"
  viewBox="0 0 24 24"
  width="40"
  height="40"
  fill="#1DA1F2"
  aria-label="Twitter"
>
  <path
    d="M22.46 6c-.77.34-1.6.57-2.46.67a4.302 4.302 0 0 0 1.88-2.38 8.613 8.613 0 0 1-2.73 1.05 4.28 4.28 0 0 0-7.3 3.9 12.147 12.147 0 0 1-8.82-4.47 4.277 4.277 0 0 0 1.32 5.71 4.25 4.25 0 0 1-1.94-.54v.05a4.28 4.28 0 0 0 3.44 4.2 4.3 4.3 0 0 1-1.93.07 4.28 4.28 0 0 0 4 2.97 8.588 8.588 0 0 1-5.3 1.83A8.8 8.8 0 0 1 2 19.54a12.107 12.107 0 0 0 6.56 1.92c7.88 0 12.2-6.53 12.2-12.2 0-.19 0-.39-.01-.58A8.63 8.63 0 0 0 22.46 6z"
  />
</svg>
