<svg
  xmlns="http://www.w3.org/2000/svg"
  width="40"
  height="40"
  viewBox="0 0 24 24"
  fill="none"
  aria-label="WhatsApp"
>
  <path
    fill="#25D366"
    d="M12.04 2a9.96 9.96 0 0 0-8.9 15.19l-1.11 4.07 4.18-1.09A9.94 9.94 0 1 0 12.04 2Z"
  />
  <path
    fill="#fff"
    d="M16.18 14.43c-.25-.13-1.48-.73-1.71-.81-.23-.08-.4-.13-.57.13-.17.25-.67.81-.82.98-.15.17-.3.19-.56.06-.26-.13-1.11-.41-2.12-1.3-.78-.7-1.3-1.57-1.45-1.83-.15-.25-.02-.38.12-.5.12-.12.26-.31.39-.46.13-.15.17-.25.25-.42.08-.17.04-.31-.02-.43-.06-.13-.57-1.39-.78-1.9-.2-.5-.4-.43-.57-.44l-.49-.01c-.17 0-.43.06-.65.31s-.85.83-.85 2.02c0 1.18.87 2.32.99 2.48.12.17 1.72 2.63 4.17 3.68.58.25 1.03.4 1.38.51.58.18 1.11.15 1.53.09.47-.07 1.48-.6 1.69-1.18.21-.58.21-1.08.15-1.18-.07-.11-.26-.17-.52-.3z"
  />
</svg>
